<svg xmlns="http://www.w3.org/2000/svg" viewBox="0 0 23 23.64"><defs><style>.cls-1{fill:#fff;fill-rule:evenodd;}</style></defs><g id="Layer_2" data-name="Layer 2"><g id="Layer_1-2" data-name="Layer 1"><path class="cls-1" d="M6.45,2.39h10.1v.75a1.72,1.72,0,0,0,1.71,1.71h0A1.71,1.71,0,0,0,20,3.14V2.39a3,3,0,0,1,3,3v15.2a3,3,0,0,1-3,3H3a3,3,0,0,1-3-3V5.41a3,3,0,0,1,3-3v.75A1.72,1.72,0,0,0,4.74,4.85h0A1.71,1.71,0,0,0,6.45,3.14ZM18.26,0h0a.84.84,0,0,1,.84.84v2.3a.83.83,0,0,1-.84.84h0a.84.84,0,0,1-.83-.84V.84A.84.84,0,0,1,18.26,0ZM16.87,17.51H20v3.1H16.87Zm0-4.62H20V16H16.87Zm0-4.61H20v3.1H16.87Zm-4.61,9.23h3.1v3.1h-3.1Zm0-4.62h3.1V16h-3.1Zm0-4.61h3.1v3.1h-3.1ZM7.64,17.51h3.1v3.1H7.64Zm0-4.62h3.1V16H7.64Zm0-4.61h3.1v3.1H7.64ZM3,17.51H6.13v3.1H3Zm0-4.62H6.13V16H3ZM3,8.28H6.13v3.1H3ZM4.74,0h0a.84.84,0,0,1,.83.84v2.3A.83.83,0,0,1,4.74,4h0a.84.84,0,0,1-.84-.84V.84A.85.85,0,0,1,4.74,0ZM21.49,6.76V20.61A1.52,1.52,0,0,1,20,22.12H3a1.52,1.52,0,0,1-1.51-1.51V6.76Z"/></g></g></svg>