<svg xmlns="http://www.w3.org/2000/svg" viewBox="0 0 14 14.39"><defs><style>.cls-1{fill:#fff;fill-rule:evenodd;}</style></defs><g id="Layer_2" data-name="Layer 2"><g id="Layer_1-2" data-name="Layer 1"><path class="cls-1" d="M3.92,1.45h6.16v.46a1,1,0,0,0,1,1.05h0a1,1,0,0,0,1-1V1.45A1.85,1.85,0,0,1,14,3.29v9.26a1.85,1.85,0,0,1-1.84,1.84H1.84A1.85,1.85,0,0,1,0,12.55V3.29A1.85,1.85,0,0,1,1.84,1.45v.46A1,1,0,0,0,2.88,3h0a1,1,0,0,0,1-1ZM11.12,0h0a.51.51,0,0,1,.51.51v1.4a.51.51,0,0,1-.51.51h0a.51.51,0,0,1-.51-.51V.51A.51.51,0,0,1,11.12,0Zm-.85,10.66h1.89v1.89H10.27Zm0-2.81h1.89V9.74H10.27Zm0-2.81h1.89V6.93H10.27ZM7.46,10.66H9.35v1.89H7.46Zm0-2.81H9.35V9.74H7.46ZM7.46,5H9.35V6.93H7.46ZM4.65,10.66H6.54v1.89H4.65Zm0-2.81H6.54V9.74H4.65ZM4.65,5H6.54V6.93H4.65ZM1.84,10.66H3.73v1.89H1.84Zm0-2.81H3.73V9.74H1.84ZM1.84,5H3.73V6.93H1.84Zm1-5h0a.51.51,0,0,1,.51.51v1.4a.51.51,0,0,1-.51.51h0a.51.51,0,0,1-.51-.51V.51A.51.51,0,0,1,2.88,0Zm10.2,4.12v8.43a.92.92,0,0,1-.92.92H1.84a.92.92,0,0,1-.92-.92V4.12Z"/></g></g></svg>