<?xml version="1.0" encoding="UTF-8"?><svg id="Layer_2" xmlns="http://www.w3.org/2000/svg" xmlns:xlink="http://www.w3.org/1999/xlink" viewBox="0 0 23 23.64"><defs><style>.cls-1{fill:url(#_称未設定グラデーション_11);fill-rule:evenodd;}</style><linearGradient id="_称未設定グラデーション_11" x1="4.12" y1=".23" x2="18.42" y2="25" gradientTransform="matrix(1, 0, 0, 1, 0, 0)" gradientUnits="userSpaceOnUse"><stop offset="0" stop-color="#178ece"/><stop offset=".32" stop-color="#04abd1"/><stop offset=".66" stop-color="#4ab9a6"/><stop offset="1" stop-color="#79be62"/></linearGradient></defs><g id="Layer_1-2"><path class="cls-1" d="M6.45,2.39h10.11v.76c0,.94,.77,1.71,1.71,1.71h0c.94,0,1.71-.77,1.71-1.71v-.76c1.66,0,3.02,1.36,3.02,3.02v15.2c0,1.66-1.36,3.02-3.02,3.02H3.02c-1.66,0-3.02-1.36-3.02-3.02V5.41c0-1.66,1.36-3.02,3.02-3.02v.76c0,.94,.77,1.71,1.71,1.71h0c.94,0,1.71-.77,1.71-1.71v-.76ZM18.26,0h0c.46,0,.84,.38,.84,.84V3.14c0,.46-.37,.84-.84,.84h0c-.46,0-.84-.37-.84-.84V.84c0-.46,.38-.84,.84-.84h0Zm-1.39,17.51h3.1v3.1h-3.1v-3.1Zm0-4.62h3.1v3.1h-3.1v-3.1Zm0-4.62h3.1v3.1h-3.1v-3.1Zm-4.62,9.23h3.1v3.1h-3.1v-3.1Zm0-4.62h3.1v3.1h-3.1v-3.1Zm0-4.62h3.1v3.1h-3.1v-3.1Zm-4.62,9.23h3.1v3.1h-3.1v-3.1Zm0-4.62h3.1v3.1h-3.1v-3.1Zm0-4.62h3.1v3.1h-3.1v-3.1ZM3.02,17.51h3.1v3.1H3.02v-3.1Zm0-4.62h3.1v3.1H3.02v-3.1Zm0-4.62h3.1v3.1H3.02v-3.1ZM4.74,0h0c.46,0,.84,.38,.84,.84V3.14c0,.46-.37,.84-.84,.84h0c-.46,0-.84-.37-.84-.84V.84c0-.46,.38-.84,.84-.84h0ZM21.49,6.76v13.85c0,.83-.68,1.51-1.51,1.51H3.02c-.83,0-1.51-.68-1.51-1.51V6.76H21.49Z"/></g></svg>