<svg xmlns="http://www.w3.org/2000/svg" viewBox="0 0 20.62 26.89"><defs><style>.cls-1{fill:#0a93d2;}</style></defs><g id="Layer_2" data-name="Layer 2"><g id="Layer_1-2" data-name="Layer 1"><path class="cls-1" d="M1.84,1.14C0,2.34-.37,6.08.33,9.13A27.41,27.41,0,0,0,4,17.7a28.59,28.59,0,0,0,6.33,6.83c2.5,1.88,6.07,3.07,7.92,1.88a9.74,9.74,0,0,0,2.39-2.56l-1-1.53-2.73-4.21c-.2-.31-1.47,0-2.12.34a6.09,6.09,0,0,0-1.67,1.82c-.6.34-1.1,0-2.15-.48-1.28-.59-2.73-2.43-3.88-4.1S4.93,11.9,4.92,10.48c0-1.15-.12-1.75.44-2.15A6.08,6.08,0,0,0,7.7,7.54c.6-.44,1.38-1.48,1.17-1.8L6.14,1.53,5.15,0A9.4,9.4,0,0,0,1.84,1.14Z"/></g></g></svg>