<svg xmlns="http://www.w3.org/2000/svg" viewBox="0 0 14 20.66"><defs><style>.cls-1{fill:#0a93d2;}</style></defs><g id="Layer_2" data-name="Layer 2"><g id="Layer_1-2" data-name="Layer 1"><path class="cls-1" d="M14,12.88V3.79C14,1.7,12.33,0,7,0S0,1.7,0,3.79v9.09c0,1.8,1.34,3.45,3.42,4.35L.92,20.66h2L5,17.73a9.44,9.44,0,0,0,4,0l2.14,2.93h2l-2.5-3.43C12.66,16.33,14,14.68,14,12.88ZM4.42,2a.16.16,0,0,1,.16-.15H9.42A.16.16,0,0,1,9.58,2v1a.16.16,0,0,1-.16.15H4.58a.16.16,0,0,1-.16-.15ZM2.12,12.52a1.12,1.12,0,1,1,1.12,1.12A1.13,1.13,0,0,1,2.12,12.52Zm8.64,1.12a1.13,1.13,0,1,1,1.12-1.12A1.12,1.12,0,0,1,10.76,13.64Zm1.63-5.27a.72.72,0,0,1-.72.72H2.33a.72.72,0,0,1-.72-.72V4.84a.72.72,0,0,1,.72-.72h9.34a.72.72,0,0,1,.72.72Z"/></g></g></svg>