<svg xmlns="http://www.w3.org/2000/svg" viewBox="0 0 15.11 19.7"><defs><style>.cls-1{fill:#0d92d1;}</style></defs><g id="Layer_2" data-name="Layer 2"><g id="Layer_1-2" data-name="Layer 1"><path class="cls-1" d="M1.35.83C0,1.71-.27,4.46.24,6.69A20.34,20.34,0,0,0,2.91,13a21,21,0,0,0,4.65,5c1.83,1.38,4.45,2.26,5.8,1.38a7.06,7.06,0,0,0,1.75-1.87l-.73-1.12-2-3.09c-.15-.23-1.08,0-1.55.25A4.5,4.5,0,0,0,9.6,14.85c-.44.26-.81,0-1.57-.35a9.4,9.4,0,0,1-2.85-3A9.28,9.28,0,0,1,3.61,7.68c0-.84-.09-1.28.31-1.58a4.56,4.56,0,0,0,1.72-.57c.44-.33,1-1.09.86-1.32l-2-3.09L3.78,0A7.11,7.11,0,0,0,1.35.83Z"/></g></g></svg>