<?xml version="1.0" encoding="UTF-8"?><svg id="Layer_2" xmlns="http://www.w3.org/2000/svg" viewBox="0 0 35.3 38.39"><defs><style>.cls-1{fill:none;stroke:#0a93d2;stroke-linecap:round;stroke-linejoin:round;stroke-width:1.3px;}</style></defs><g id="Layer_1-2"><g><path class="cls-1" d="M12.87,12.58l2.38-.39c.17-.03,.35-.04,.53-.04h0c1.06,0,2.07,.51,2.59,1.37,.34,.55,.6,1.29,.6,2.27h0c0,.84-.23,1.66-.68,2.39l-.68,1.11c-.32,.53-.53,1.11-.58,1.72-.13,1.4-.59,2.77-1.34,4l-.45,.74c-.12,.19-.33,.3-.56,.3h0c-.36,0-.65-.27-.65-.61v-1.17c0-.59-.11-1.18-.33-1.74l-.18-.45c-.1-.26-.36-.43-.66-.43h0c-.3,0-.56,.18-.66,.44l-.18,.49c-.19,.52-.29,1.07-.29,1.62v1.23c0,.34-.29,.61-.65,.61h0c-.23,0-.45-.12-.56-.3l-.45-.74c-.76-1.23-1.21-2.59-1.34-4-.06-.61-.26-1.19-.58-1.72l-.68-1.11c-.45-.73-.68-1.55-.68-2.39h0c0-.98,.26-1.72,.6-2.27,.53-.86,1.53-1.36,2.59-1.36h0c.18,0,.35,.01,.53,.04l2.38,.39"/><path class="cls-1" d="M17.54,37.74v-4.47c0-2.15,1.72-3.89,3.87-3.93,2.57-.04,5.95-.16,8.06-.25,1.2-.05,2.09-1.11,1.93-2.3-.09-.72-.25-1.45-.52-1.96-.19-.36-.26-.75-.26-1.1,0-.61,.36-1.17,.91-1.44h.02c.2-.11,.3-.31,.34-.54,.1-.61-.25-1.21-.81-1.49l-3.22-1.62s4.58-1.85,4.33-2.38c-.24-.53-.96-2.34-.96-2.34,0-.2,1.37-.96,1.37-.96,1.66-.98,2.06-1.92,2.05-2.63,0-.06,0-.13-.02-.22-.09-.51-.42-.93-.87-1.18-.62-.34-1.41-.81-2.3-1.41-1.88-1.26-2.84-1.91-3.53-3.01-.37-.6-1.01-1.85-.95-3.87"/><path class="cls-1" d="M3.78,16.58c.04,.74,.24,1.53,.59,2.3,.32,.7,.74,1.31,1.21,1.8"/><path class="cls-1" d="M.9,15.41c-.44,1.34-.31,3.13,.49,4.86,.8,1.73,2.07,2.99,3.38,3.53"/><path class="cls-1" d="M21.77,16.58c-.04,.74-.24,1.53-.59,2.3-.32,.7-.74,1.31-1.21,1.8"/><path class="cls-1" d="M24.65,15.41c.44,1.34,.31,3.13-.49,4.86-.8,1.73-2.07,2.99-3.38,3.53"/></g></g></svg>