<?xml version="1.0" encoding="UTF-8"?><svg id="Layer_2" xmlns="http://www.w3.org/2000/svg" viewBox="0 0 37.25 38.27"><defs><style>.cls-1,.cls-2{fill:none;stroke:#00b5cd;stroke-linecap:round;stroke-linejoin:round;}.cls-2{stroke-width:1.5px;}</style></defs><g id="Layer_1-2"><g><path class="cls-1" d="M33.09,5.54s-.16,.07-.43,.15c-.28,.09-.67,.2-1.14,.3-.41,.09-.87,.16-1.37,.21-.75,.08-1.34,.67-1.42,1.42-.05,.5-.13,.97-.21,1.38-.1,.47-.21,.86-.3,1.14-.09,.28-.16,.43-.16,.43,0,0-.07-.16-.16-.43-.09-.27-.2-.67-.3-1.14-.09-.42-.16-.89-.22-1.4-.08-.75-.67-1.34-1.42-1.42-.51-.05-1.05-.12-1.37-.19-.47-.09-.86-.21-1.14-.3-.27-.09-.43-.15-.43-.15,0,0,.16-.07,.43-.16,.28-.09,.67-.2,1.14-.3,.41-.09,.88-.16,1.38-.22,.75-.08,1.34-.67,1.42-1.42,.05-.5,.13-.96,.21-1.37,.09-.47,.2-.86,.29-1.14,.09-.28,.16-.43,.16-.43,0,0,.07,.16,.16,.43,.09,.27,.2,.67,.29,1.14,.09,.42,.16,.89,.22,1.4,.08,.75,.67,1.34,1.42,1.42,.51,.05,1.05,.12,1.37,.19,.47,.1,.86,.21,1.14,.3,.27,.09,.43,.16,.43,.16Z"/><path class="cls-1" d="M36.75,14.7s-.16,.07-.43,.15c-.28,.09-.67,.2-1.14,.3-.41,.09-.87,.16-1.37,.21-.75,.08-1.34,.67-1.42,1.42-.05,.5-.13,.97-.21,1.38-.1,.47-.21,.86-.3,1.14-.09,.28-.16,.43-.16,.43,0,0-.07-.16-.16-.43-.09-.27-.2-.67-.3-1.14-.09-.42-.16-.89-.22-1.4-.08-.75-.67-1.34-1.42-1.42-.51-.05-1.05-.12-1.37-.19-.47-.09-.86-.21-1.14-.3-.27-.09-.43-.15-.43-.15,0,0,.16-.07,.43-.16,.28-.09,.67-.2,1.14-.3,.41-.09,.88-.16,1.38-.22,.75-.08,1.34-.67,1.42-1.42,.05-.5,.13-.96,.21-1.37,.09-.47,.2-.86,.29-1.14,.09-.28,.16-.43,.16-.43,0,0,.07,.16,.16,.43,.09,.27,.2,.67,.29,1.14,.09,.42,.16,.89,.22,1.4,.08,.75,.67,1.34,1.42,1.42,.51,.05,1.05,.12,1.37,.19,.47,.1,.86,.21,1.14,.3,.27,.09,.43,.16,.43,.16Z"/><path class="cls-2" d="M12.2,10.51l4.47-.79c.33-.06,.66-.09,.99-.09h0c1.99,0,3.87,1.02,4.86,2.74,.63,1.11,1.12,2.59,1.12,4.55h0c0,1.68-.44,3.34-1.27,4.79l-1.28,2.23c-.61,1.06-.98,2.24-1.09,3.45-.24,2.82-1.1,5.56-2.52,8.02l-.85,1.48c-.22,.38-.62,.61-1.06,.61h0c-.67,0-1.22-.55-1.22-1.22v-2.34c0-1.19-.21-2.37-.63-3.49l-.34-.91c-.19-.51-.68-.85-1.23-.85h0c-.56,0-1.06,.36-1.24,.89l-.34,.98c-.36,1.05-.54,2.15-.54,3.25v2.47c0,.67-.55,1.22-1.22,1.22h0c-.44,0-.84-.23-1.06-.61l-.85-1.48c-1.42-2.46-2.27-5.2-2.52-8.02-.11-1.22-.48-2.39-1.09-3.45l-1.28-2.23c-.84-1.46-1.27-3.11-1.27-4.79H.75c0-1.96,.49-3.45,1.13-4.56,.99-1.72,2.87-2.74,4.86-2.74h0c.33,0,.66,.03,.99,.09l4.47,.79"/></g></g></svg>