<?xml version="1.0" encoding="UTF-8"?><svg id="Layer_2" xmlns="http://www.w3.org/2000/svg" viewBox="0 0 35.3 36.25"><defs><style>.cls-1{fill:none;stroke:#0a93d2;stroke-linecap:round;stroke-linejoin:round;stroke-width:1.3px;}</style></defs><g id="Layer_1-2"><g><path class="cls-1" d="M12.17,8.41l-4.5-.79c-.33-.06-.66-.09-.99-.09h0c-2,0-3.9,1.02-4.89,2.76-.64,1.11-1.13,2.61-1.13,4.58H.65c0,1.69,.44,3.36,1.28,4.83l1.29,2.25c.61,1.07,.99,2.25,1.1,3.47,.25,2.84,1.11,5.59,2.53,8.07l.86,1.49c.22,.38,.62,.62,1.06,.62h0c.68,0,1.23-.55,1.23-1.23v-2.35c0-1.2,.21-2.39,.63-3.51l.34-.91c.19-.52,.69-.86,1.24-.86h0c.56,0,1.06,.36,1.25,.89l.34,.99c.36,1.05,.55,2.16,.55,3.27v2.48c0,.68,.55,1.23,1.23,1.23h0c.44,0,.84-.23,1.06-.62l.86-1.49c1.43-2.48,2.29-5.23,2.53-8.07,.11-1.22,.49-2.41,1.1-3.47l1.29-2.25c.84-1.47,1.28-3.13,1.28-4.83h0c0-.47-.03-.92-.08-1.33"/><g><line class="cls-1" x1="15.65" y1="5.26" x2="13.19" y2="1.22"/><line class="cls-1" x1="13.82" y1="6.32" x2="11.54" y2="4.05"/><line class="cls-1" x1="17.38" y1="4.15" x2="16.4" y2="1.09"/></g><g><path class="cls-1" d="M27.7,6.24l-5.29,3.97-3.61-3.61,3.97-5.29c.88-.88,2.3-.88,3.17,0l1.76,1.76c.88,.88,.88,2.3,0,3.17Z"/><line class="cls-1" x1="18.78" y1="10.23" x2="16.95" y2="12.05"/><path class="cls-1" d="M34.65,11.63c-2.3-1.42-4.46-3.07-6.45-4.91-.33-.3-.5-.48-.5-.48"/><line class="cls-1" x1="23.78" y1="9.18" x2="30.59" y2="16"/><path class="cls-1" d="M21.53,9.33l-1.39,1.39c-.25,.25-.66,.25-.92,0l-.93-.93c-.25-.25-.25-.66,0-.92l1.39-1.39"/></g><path class="cls-1" d="M16.95,14.53c-1.37,0-2.48-1.11-2.48-2.48"/><path class="cls-1" d="M12.17,8.41l-4.5-.79c-.33-.06-.66-.09-.99-.09h0c-2,0-3.9,1.02-4.89,2.76-.64,1.11-1.13,2.61-1.13,4.58H.65c0,1.69,.44,3.36,1.28,4.83l1.29,2.25c.61,1.07,.99,2.25,1.1,3.47,.25,2.84,1.11,5.59,2.53,8.07l.86,1.49c.22,.38,.62,.62,1.06,.62h0c.68,0,1.23-.55,1.23-1.23v-2.35c0-1.2,.21-2.39,.63-3.51l.34-.91c.19-.52,.69-.86,1.24-.86h0c.56,0,1.06,.36,1.25,.89l.34,.99c.36,1.05,.55,2.16,.55,3.27v2.48c0,.68,.55,1.23,1.23,1.23h0c.44,0,.84-.23,1.06-.62l.86-1.49c1.43-2.48,2.29-5.23,2.53-8.07,.11-1.22,.49-2.41,1.1-3.47l1.29-2.25c.84-1.47,1.28-3.13,1.28-4.83h0c0-.47-.03-.92-.08-1.33"/></g></g></svg>