<?xml version="1.0" encoding="UTF-8"?><svg id="Layer_2" xmlns="http://www.w3.org/2000/svg" viewBox="0 0 22.5 40.94"><defs><style>.cls-1{fill:none;stroke:#00b5cd;stroke-linecap:round;stroke-linejoin:round;stroke-width:1.5px;}</style></defs><g id="Layer_1-2"><g><path class="cls-1" d="M3.01,15.66l-.17-.61c-.44-1.56-1.01-3.08-1.56-4.6-.35-.96-.53-1.98-.53-3.01,0-1.79,.45-3.16,1.03-4.17C2.68,1.68,4.41,.75,6.24,.75h0c.3,0,.6,.02,.9,.08l4.1,.72,4.1-.72c.3-.05,.6-.08,.9-.08h0c1.82,0,3.55,.93,4.45,2.51,.29,.51,.55,1.1,.73,1.8,.18,.69,.3,1.48,.3,2.38,0,1.03-.18,2.05-.52,3.01-.57,1.58-1.16,3.15-1.63,4.76l-.13,.46"/><path class="cls-1" d="M19.46,15.66l-1.3,5.03c-.23,.89-1.03,1.51-1.95,1.51H6.26c-.92,0-1.72-.62-1.95-1.51l-1.3-5.03H19.46Z"/><g><path class="cls-1" d="M11.23,40.19l-3.31-2.95c-.62-.55-.97-1.34-.97-2.16v-7.44c0-1.34-.28-2.67-.8-3.88-.31-.71-.7-1.38-1.16-2.01"/><path class="cls-1" d="M11.23,40.19l3.32-2.95c.62-.55,.97-1.34,.97-2.16v-7.4c0-2.14,.68-4.22,1.94-5.93"/></g><path class="cls-1" d="M15.52,26.74l-.33-.22c-1.25-.85-2.65-1.44-4.13-1.75l-4.91-1.01h0"/><path class="cls-1" d="M6.95,28.05l4.08,.85c1.59,.33,3.11,.95,4.49,1.82"/><path class="cls-1" d="M6.95,32.11l4.08,.85c.74,.15,1.46,.36,2.16,.64,.81,.31,1.59,.7,2.33,1.17"/><path class="cls-1" d="M7.01,35.7h0l4.01,.83c1.08,.22,2.12,.58,3.12,1.06"/></g></g></svg>