<?xml version="1.0" encoding="UTF-8"?><svg id="Layer_2" xmlns="http://www.w3.org/2000/svg" viewBox="0 0 45 36.03"><defs><style>.cls-1{fill:#53bc9a;}</style></defs><g id="Layer_1-2"><g><g><path class="cls-1" d="M5.98,27.62c-.2,0-.39-.08-.53-.25-.24-.29-.21-.72,.08-.97l3.83-3.21c.29-.24,.72-.21,.97,.08,.24,.29,.21,.72-.08,.97l-3.83,3.21c-.13,.11-.29,.16-.44,.16Z"/><g><path class="cls-1" d="M.69,16.31c-.33,0-.62-.23-.68-.57-.07-.37,.18-.73,.56-.79l5.08-.89c.38-.07,.73,.18,.8,.56,.07,.37-.18,.73-.56,.79l-5.08,.89s-.08,.01-.12,.01Z"/><path class="cls-1" d="M2.59,22.31c-.26,0-.51-.15-.62-.4-.16-.34-.01-.75,.33-.91l4.58-2.13c.34-.16,.75-.01,.91,.33,.16,.34,.01,.75-.33,.91l-4.58,2.13c-.09,.04-.19,.06-.29,.06Z"/></g></g><path class="cls-1" d="M44.16,3.76c-.65-.46-1.43,.37-.93,.99,1.1,1.34-.18,4.33-2.54,4.97,.23-1.51,.38-3.04,.45-4.55,.02-.38-.27-.7-.65-.72-1.08-.06-.46,1-1.25,5.71-.04,.19-.06,.36-.09,.52-1.32,7.26-4.67,13.58-10.96,13.58-2.56,0-4.55-1-6.11-2.58,.13,.68,.21,1.36,.21,2.02,1.59,1.19,3.53,1.92,5.91,1.92,7.05,0,10.8-6.73,12.26-14.47,3.02-.43,4.97-3.54,4.48-5.94,0,0-.05-.39-.24-.81-.18-.37-.52-.67-.52-.67Z"/><path class="cls-1" d="M20.74,15.23c-1.01-1.37-2.55-4.6-3.11-6.28-.61-1.87-2.46-2.5-3.68-1.75,.42-4.17,1.09-5.8-.5-6.8C12.24-.36,10.63,0,9.88,1.19c-1.27,1.84-1.91,7.65-1.69,9.72,.27,2.57,1.14,4.37,2.07,6.28,.46,.96,.58,1.23,1.63,3.1,4.74,8.44,2.79,8.1-.11,14.78-.36,.83,.9,1.38,1.26,.55,1.12-2.57,3.02-5.72,3.09-7.38,.23-5.66-5.89-11.1-6.57-17.47-.21-2.01,.48-7.38,1.47-8.82,.36-.57,1.13-.75,1.7-.39,.48,.3,.41,.87,.28,1.99-.73,6.81-1.63,6.93,3.21,15.42,.45,.79,1.64,.11,1.2-.68-.98-1.72-3.49-6.23-3.59-8.19,.03-.79,.57-1.73,1.05-1.82,.76-.13,1.26,.5,1.45,1.09,.59,1.79,2.19,5.16,3.31,6.67,2.18,2.95,3.52,7.81,1.98,10.84-.75,1.47-2.25,5.96-2.31,6.15-.29,.86,1.02,1.29,1.3,.43,.01-.05,1.53-4.58,2.23-5.96,1.84-3.63,.29-9.03-2.1-12.27Z"/><path class="cls-1" d="M30.08,17.9c-.22,0-.43-.1-.57-.3-.27-.38-.73-.61-1.23-.61s-.97,.23-1.23,.61c-.22,.31-.64,.39-.96,.17-.31-.22-.39-.64-.17-.95,.52-.75,1.41-1.2,2.36-1.2s1.84,.45,2.36,1.2c.22,.31,.14,.74-.17,.95-.12,.08-.26,.12-.39,.12Z"/></g></g></svg>