<?xml version="1.0" encoding="UTF-8"?><svg id="Layer_2" xmlns="http://www.w3.org/2000/svg" viewBox="0 0 37.3 32.47"><defs><style>.cls-1{fill:none;stroke:#00b5cd;stroke-linecap:round;stroke-linejoin:round;stroke-width:1.3px;}</style></defs><g id="Layer_1-2"><g><g><path class="cls-1" d="M24.52,3.03c-1.17-1.51-3.03-2.38-4.97-2.38h0c-.37,0-.74,.03-1.1,.1l-5,.88"/><path class="cls-1" d="M13.44,1.63l-5-.88c-.36-.06-.73-.1-1.1-.1h0C5.12,.65,3.01,1.78,1.91,3.71c-.71,1.24-1.26,2.9-1.26,5.09,0,1.88,.49,3.73,1.42,5.36l1.43,2.5c.68,1.18,1.1,2.5,1.22,3.86,.27,3.15,1.23,6.21,2.81,8.96l.95,1.65c.24,.42,.69,.68,1.18,.68,.75,0,1.36-.61,1.36-1.36v-2.76c0-1.24,.21-2.47,.61-3.64l.38-1.1c.2-.59,.76-.99,1.39-.99s1.16,.38,1.37,.95l.38,1.02c.46,1.25,.7,2.57,.7,3.9v2.61c0,.75,.61,1.36,1.36,1.36,.49,0,.94-.26,1.18-.68l.95-1.65"/></g><g><polygon class="cls-1" points="29.59 16.48 29.59 18.76 27.38 18.76 27.38 20.97 25.1 20.97 25.1 18.76 22.89 18.76 22.89 16.48 25.1 16.48 25.1 14.27 27.38 14.27 27.38 16.48 29.59 16.48"/><g><path class="cls-1" d="M33.69,7.57c-1.7-1.44-4.19-2.86-7.4-2.86-.09,0-.19,0-.28,0-5.97,.16-9.27,5.03-9.87,6l-.31,.51v.61c.03,3.01,.1,10.04,4.3,15.36"/><path class="cls-1" d="M27.43,27.64c-.74,.48-1.63,.48-2.37,0-6.18-4-6.31-11.74-6.34-15.09,.26-.42,2.79-4.38,7.36-4.5,4.73-.12,7.45,3.97,7.68,4.34-.02,3.5-.06,11.19-6.33,15.25Z"/><path class="cls-1" d="M36.65,11.01v.62c-.03,4.14-.09,13.83-8.1,19.02-.7,.45-1.5,.69-2.31,.69s-1.61-.24-2.31-.69"/></g></g></g></g></svg>