<?xml version="1.0" encoding="UTF-8"?><svg id="Layer_2" xmlns="http://www.w3.org/2000/svg" viewBox="0 0 28.3 34.19"><defs><style>.cls-1{fill:none;stroke:#0a93d2;stroke-linecap:round;stroke-linejoin:round;stroke-width:1.3px;}</style></defs><g id="Layer_1-2"><path class="cls-1" d="M17.9,1.02l1.52-.27c.38-.07,.77-.1,1.16-.1h.01c2.34,0,4.56,1.2,5.73,3.23,.37,.65,.71,1.42,.95,2.31,.24,.89,.38,1.91,.38,3.06,0,1.98-.52,3.93-1.5,5.66l-1.51,2.63c-.72,1.25-1.16,2.64-1.28,4.08-.29,3.32-1.3,6.55-2.97,9.45l-1,1.75c-.26,.44-.73,.72-1.24,.72-.8,0-1.44-.65-1.44-1.44v-2.91c0-1.3-.21-2.6-.64-3.84l-.4-1.16c-.22-.62-.81-1.04-1.46-1.04s-1.22,.4-1.45,1.01l-.4,1.07c-.49,1.32-.74,2.71-.74,4.12v2.76c0,.4-.16,.75-.42,1.01-.26,.26-.62,.42-1.01,.42-.52,0-.99-.28-1.25-.72l-1-1.75c-1.67-2.91-2.68-6.13-2.96-9.45-.12-1.44-.57-2.83-1.29-4.08l-1.51-2.63c-.49-.86-.87-1.78-1.12-2.73-.26-.95-.38-1.93-.38-2.93,0-2.3,.58-4.06,1.32-5.36C3.14,1.85,5.36,.65,7.71,.65h.01c.39,0,.78,.03,1.16,.1l5.27,.93,3.26,3.57h-4.27l7.54,10.15-2.27-7.74,5.74-.06L17.9,1.02"/></g></svg>