<?xml version="1.0" encoding="UTF-8"?><svg id="Layer_2" xmlns="http://www.w3.org/2000/svg" viewBox="0 0 38 39.2"><defs><style>.cls-1{fill:#53bc9a;}</style></defs><g id="Layer_1-2"><g><path class="cls-1" d="M13.81,24.56c-3.96-.49-4.79-3.65-4.79-6.2,0-.34-.28-.62-.62-.62s-.62,.28-.62,.62c0,2.5,.76,6.79,5.88,7.43,.03,0,.05,0,.08,0,.31,0,.57-.23,.61-.54,.04-.34-.2-.65-.54-.69Z"/><path class="cls-1" d="M17.54,25.73c-.31,.14-.45,.51-.3,.82,.85,1.86-.32,6.39-.84,7.98-.11,.32,.07,.67,.39,.78,.06,.02,.13,.03,.19,.03,.26,0,.5-.16,.59-.42,.21-.63,2-6.24,.79-8.88-.14-.31-.51-.45-.82-.3Z"/><path class="cls-1" d="M36.17,1.22c-.26-.22-.65-.19-.87,.07-.22,.26-.19,.65,.07,.87,.02,.02,2.44,2.36,.83,11.95-.97,5.81-4.88,10.87-4.92,10.92-.08,.11-.13,.24-.13,.38v9.31c0,.34,.28,.62,.62,.62s.62-.28,.62-.62v-9.1c.72-.97,4.1-5.73,5.03-11.31,1.72-10.25-.95-12.84-1.26-13.1Z"/><path class="cls-1" d="M17.67,19.04c-.67-2.06-2.09-3.73-4.02-4.71-1.45-.74-3.06-1.02-4.64-.83v-1.9c0-.16-.07-.32-.18-.44-.12-.12-.27-.18-.44-.18-.01,0-.02,0-.03,0-2.1,0-4.54-.18-5.39-.45C4.05,8.65,7.29,1.72,7.68,.88c.14-.31,.01-.68-.3-.82-.31-.14-.68-.01-.82,.3C5.43,2.78,2.36,9.27,1.76,10.14c-.2,.29-.23,.62-.07,.91,.38,.73,2.43,1.12,6.1,1.16v1.55c-.1,.03-.2,.05-.3,.08-2.06,.67-3.73,2.09-4.72,4.02-1.68,3.3-.88,7.22,1.71,9.62L.41,35.42c-.33,.65-.47,1.37-.39,2.01,.09,.72,.46,1.29,1.02,1.57,.26,.13,.53,.19,.81,.19,.92,0,1.9-.67,2.46-1.78l4.07-7.96c.52,.1,1.05,.17,1.58,.17,2.95,0,5.79-1.61,7.22-4.41,.98-1.92,1.16-4.12,.49-6.17ZM3.21,36.85c-.45,.88-1.21,1.26-1.61,1.05-.25-.13-.33-.45-.35-.63-.05-.39,.04-.86,.26-1.29l3.93-7.68,.85,.43h0l.85,.43-3.93,7.68Zm12.87-12.21c-1.72,3.37-5.86,4.71-9.22,2.99h0c-3.37-1.72-4.7-5.86-2.98-9.23,.82-1.61,2.21-2.8,3.91-3.37v.78c0,.34,.28,.62,.62,.62s.62-.28,.62-.62v-1.08c.32-.05,.64-.07,.96-.07,1.07,0,2.13,.25,3.11,.75,1.63,.83,2.84,2.25,3.4,4,.56,1.74,.42,3.6-.42,5.23Z"/></g></g></svg>