<?xml version="1.0" encoding="UTF-8"?><svg id="Layer_2" xmlns="http://www.w3.org/2000/svg" viewBox="0 0 45.5 44.38"><defs><style>.cls-1{stroke-miterlimit:10;}.cls-1,.cls-2{fill:none;stroke:#53bc9a;stroke-linecap:round;stroke-width:1.5px;}.cls-2{stroke-linejoin:round;}</style></defs><g id="Layer_1-2"><g><path class="cls-2" d="M11.72,1.5l3.82-.67c.28-.05,.56-.07,.84-.07h0c1.7,0,3.31,.87,4.16,2.35,.54,.95,.96,2.22,.96,3.89h0c0,1.44-.38,2.85-1.09,4.1l-1.09,1.91c-.52,.91-.84,1.91-.93,2.95-.21,2.41-.94,4.75-2.15,6.86l-.73,1.27c-.19,.32-.53,.52-.9,.52h0c-.58,0-1.04-.47-1.04-1.04v-2c0-1.02-.18-2.03-.54-2.99l-.29-.78c-.16-.44-.58-.73-1.05-.73h0c-.48,0-.91,.3-1.06,.76l-.29,.84c-.31,.9-.47,1.84-.47,2.78v2.11c0,.58-.47,1.04-1.04,1.04h0c-.37,0-.72-.2-.9-.52l-.73-1.27c-1.21-2.11-1.94-4.45-2.15-6.86-.09-1.04-.41-2.05-.93-2.95l-1.09-1.91c-.71-1.25-1.09-2.66-1.09-4.1h0c0-1.68,.42-2.95,.96-3.9C3.74,1.62,5.35,.75,7.05,.75h0c.28,0,.57,.02,.84,.07l3.82,.67"/><path class="cls-2" d="M28.22,23.15l2.67-2.82c.19-.21,.41-.39,.63-.56h0c1.37-1.02,3.18-1.28,4.74-.6,1,.44,2.09,1.21,3.09,2.55h0c.86,1.15,1.4,2.51,1.57,3.94l.26,2.19c.12,1.04,.47,2.04,1.01,2.93,1.27,2.06,2.08,4.38,2.37,6.79l.17,1.45c.04,.37-.11,.74-.41,.96h0c-.46,.34-1.12,.25-1.46-.21l-1.19-1.6c-.61-.82-1.36-1.52-2.21-2.08l-.7-.45c-.39-.26-.9-.24-1.28,.04h0c-.38,.29-.55,.78-.4,1.24l.27,.85c.29,.9,.72,1.75,1.29,2.51l1.26,1.69c.34,.46,.25,1.12-.21,1.46h0c-.3,.22-.7,.27-1.04,.12l-1.34-.58c-2.23-.97-4.22-2.41-5.82-4.22-.69-.78-1.55-1.4-2.51-1.81l-2.02-.88c-1.32-.58-2.46-1.49-3.32-2.64h0c-1-1.34-1.42-2.62-1.55-3.7-.2-1.69,.57-3.34,1.94-4.36h0c.23-.17,.47-.32,.72-.45l3.47-1.74"/><g><line class="cls-2" x1="30.95" y1="15.98" x2="28.12" y2="10.6"/><line class="cls-2" x1="33.33" y1="14.67" x2="32.33" y2="10.64"/><line class="cls-2" x1="28.58" y1="17.16" x2="25.84" y2="14.05"/></g><path class="cls-1" d="M22.83,21.76h-2.47c-.53,0-1,.57-1.1,1.37-.32,2.4-2.53,5.3-3.72,6.22-.8,.62-2.2,.45-3.28-3.13-.18-.61-.75-.61-.93,0-1.08,3.58-2.48,3.75-3.28,3.13-1.19-.92-3.4-3.83-3.72-6.22-.11-.8-.57-1.37-1.1-1.37H.75"/></g></g></svg>