<?xml version="1.0" encoding="UTF-8"?><svg id="Layer_2" xmlns="http://www.w3.org/2000/svg" viewBox="0 0 34.5 41.3"><defs><style>.cls-1,.cls-2{stroke-miterlimit:10;}.cls-1,.cls-2,.cls-3{fill:none;stroke:#7dc057;stroke-width:1.5px;}.cls-2,.cls-3{stroke-linecap:round;}.cls-3{stroke-linejoin:round;}</style></defs><g id="Layer_1-2"><g><path class="cls-2" d="M4.62,34.74c2.62,3.6,6.7,5.81,12.63,5.81,12.09,0,16.5-9.18,16.5-20.6,0-7.39-3.09-13.88-7.73-17.54-2.54-2-5.86-2.18-8.77-.59C14.35,.22,11.02,.41,8.48,2.41,3.84,6.07,.75,12.55,.75,19.94c0,4.48,.68,8.62,2.23,11.99"/><path class="cls-2" d="M12.44,6.43c1.49-.64,3.11-.99,4.81-.99,7.37,0,13.34,6.6,13.34,14.74s-5.97,14.74-13.34,14.74S3.91,28.33,3.91,20.18c0-4.93,2.19-9.29,5.55-11.97"/><path class="cls-2" d="M30.41,19.96c-2.2-4.61-6.93-8.23-6.93-8.23-2-.95-3.45-1.34-6.21-1.34s-4.21,.38-6.21,1.34c0,0-1.97,1.5-3.96,3.81"/><path class="cls-1" d="M25.87,24.87c1.06-8.7-5.34-9.52-5.34-9.52-1.26-.19-1.79,.24-1.87,.92-.11,1.06,.29,1.78,.29,1.78,.33,.38,.54,.88,.54,1.43,0,1.2-1.04,2.17-2.24,2.17s-2.24-.97-2.24-2.17c0-.55,.2-1.05,.54-1.43,0,0,.4-.72,.29-1.78-.07-.68-.61-1.11-1.87-.92,0,0-4.97,.64-5.42,6.82"/><path class="cls-3" d="M28.4,27.71c-5.12-7.97-11.14-1.87-11.14-1.87,0,0-6.03-6.1-11.14,1.87"/></g></g></svg>