<?xml version="1.0" encoding="UTF-8"?><svg id="Layer_2" xmlns="http://www.w3.org/2000/svg" viewBox="0 0 37.5 37.5"><defs><style>.cls-1{fill:none;stroke:#7dc057;stroke-linecap:round;stroke-miterlimit:10;stroke-width:1.5px;}</style></defs><g id="Layer_1-2"><g><path class="cls-1" d="M21.37,6.89L7.99,20.28c-.82,.82-.82,2.15,0,2.97l3.13,3.13"/><path class="cls-1" d="M30.61,16.13l-13.38,13.38c-.82,.82-2.15,.82-2.97,0l-.95-.95-3.44,3.44c-.69,.69-1.82,.69-2.51,0l-1.86-1.86c-.69-.69-.69-1.82,0-2.51l3.44-3.44"/><line class="cls-1" x1="6.42" y1="31.08" x2=".75" y2="36.75"/><line class="cls-1" x1="35.07" y1="16.77" x2="20.73" y2="2.43"/><line class="cls-1" x1="11.85" y1="16.41" x2="14.73" y2="19.29"/><line class="cls-1" x1="14.89" y1="13.37" x2="17.77" y2="16.25"/><line class="cls-1" x1="17.93" y1="10.33" x2="20.81" y2="13.21"/><g><line class="cls-1" x1="29.87" y1="11.56" x2="34.96" y2="6.47"/><line class="cls-1" x1="25.94" y1="7.63" x2="31.03" y2="2.54"/></g><line class="cls-1" x1="36.75" y1="8.26" x2="29.24" y2=".75"/></g></g></svg>